<?xml version="1.0" encoding="utf-8"?>
<!-- Generator: Adobe Illustrator 19.0.0, SVG Export Plug-In . SVG Version: 6.00 Build 0)  -->
<svg version="1.1" id="Capa_1" xmlns="http://www.w3.org/2000/svg" xmlns:xlink="http://www.w3.org/1999/xlink" x="0px" y="0px"
	 viewBox="0 0 229.5 273.7" style="enable-background:new 0 0 229.5 273.7;" xml:space="preserve">
<style type="text/css">
	.st0{clip-path:url(#SVGID_2_);fill:#FFFFFF;}
</style>
<g>
	<defs>
		<rect id="SVGID_1_" width="229.5" height="273.7"/>
	</defs>
	<clipPath id="SVGID_2_">
		<use xlink:href="#SVGID_1_"  style="overflow:visible;"/>
	</clipPath>
	<path class="st0" d="M33.3,55.5c0-12.3,9.9-22.2,22.2-22.2s22.2,9.9,22.2,22.2v0h33.3C111.1,24.9,86.2,0,55.5,0
		C24.9,0,0,24.9,0,55.5L33.3,55.5L33.3,55.5z"/>
	<path class="st0" d="M65.8,96.1H1.1v44.2h64.7v38.3c0,28.1-22.8,50.9-50.9,50.9H1.1v44.2h13.8c52.5,0,95.1-42.6,95.1-95.1v-38.3
		V96.1H65.8z"/>
	<path class="st0" d="M140,96.3h-8.3v5.7h8.3v4.9c0,3.6-2.9,6.5-6.5,6.5h-1.8v5.7h1.8c6.7,0,12.2-5.5,12.2-12.2V102v-5.7H140z"/>
	<path class="st0" d="M157.6,109.5c-2.4,0-4.2-1.7-4.2-4.3c0-2.7,1.8-4.3,4.2-4.3c2.4,0,4.2,1.7,4.2,4.3
		C161.8,107.9,160.1,109.5,157.6,109.5 M161.8,98.1c-1.2-1.3-2.9-2.2-5.3-2.2c-4.6,0-8.4,4.1-8.4,9.3c0,5.3,3.8,9.3,8.4,9.3
		c2.4,0,4.1-0.8,5.3-2.1v1.7h5.3V96.4h-5.3V98.1z"/>
	<path class="st0" d="M175,105.2c0-2.5,1.8-4.2,4.1-4.2c2.3,0,4.1,1.7,4.1,4.2c0,2.5-1.8,4.2-4.1,4.2
		C176.7,109.4,175,107.7,175,105.2 M188.6,105.2c0-5.4-4.2-9.5-9.5-9.5c-5.3,0-9.5,4.1-9.5,9.5c0,5.4,4.2,9.5,9.5,9.5
		c0.1,0,0.3,0,0.4,0c2.7-0.1,3.6-0.6,5.2-1.8C187,111.2,188.6,108.5,188.6,105.2"/>
	<path class="st0" d="M202.9,106c0,2.5-1.3,3.6-3.3,3.6c-1.7,0-3.1-1-3.1-3.2V96.4h-5.3v10.8c0,4.8,3,7.3,6.6,7.3
		c2.3,0,4.1-0.8,5-2.1v1.7h5.3V96.4h-5.3V106z"/>
	<path class="st0" d="M216.7,103.4c0.5-1.8,1.8-2.8,3.8-2.8c1.6,0,3.2,0.7,3.7,2.8H216.7z M229.5,105.2c0-5.3-3.8-9.3-9-9.3
		c-5.6,0-9.4,4.1-9.4,9.3c0,5.3,3.7,9.3,9.8,9.3c2.8,0,5-0.9,6.7-2.6l-3.3-3.5c-0.7,0.8-1.9,1.3-3.4,1.3c-1.9,0-3.6-0.6-4.2-2.5
		h12.5C229.5,106.7,229.5,106,229.5,105.2"/>
	<path class="st0" d="M131.2,133.3c0-4.1,3.1-7.3,7.3-7.3c2.7,0,5.1,1.4,6.3,3.6l-3.6,2.1c-0.5-1-1.5-1.5-2.7-1.5
		c-1.8,0-3.1,1.3-3.1,3.2c0,1.9,1.3,3.2,3.1,3.2c1.2,0,2.2-0.6,2.7-1.5l3.6,2.1c-1.2,2.2-3.5,3.6-6.3,3.6
		C134.3,140.6,131.2,137.4,131.2,133.3"/>
	<path class="st0" d="M155.9,133.3c0-2-1.4-3.3-3.2-3.3c-1.8,0-3.2,1.3-3.2,3.3c0,2,1.4,3.3,3.2,3.3
		C154.5,136.6,155.9,135.3,155.9,133.3 M145.4,133.3c0-4.1,3.3-7.3,7.3-7.3c4.1,0,7.4,3.2,7.4,7.3c0,4.1-3.3,7.3-7.4,7.3
		C148.6,140.6,145.4,137.4,145.4,133.3"/>
	<path class="st0" d="M175.6,131.7v8.5h-4.2v-7.9c0-1.7-1.1-2.5-2.4-2.5c-1.5,0-2.6,0.9-2.6,2.9v7.6h-4.2v-13.9h4.2v1.3
		c0.7-1,2.1-1.7,4-1.7C173.2,126,175.6,128,175.6,131.7"/>
	<path class="st0" d="M183.3,126.6h2.7v3.3h-2.7v5.7c0,0.6,0.1,1,0.4,1.2c0.3,0.2,0.7,0.4,1.2,0.4c0.2,0,0.4,0,0.7,0
		c0.2,0,0.4,0,0.5-0.1v3.1c-0.2,0.1-0.4,0.1-0.8,0.2c-0.3,0.1-0.8,0.1-1.3,0.1c-1.3,0-2.4-0.4-3.2-1.1c-0.8-0.7-1.2-1.8-1.2-3.1
		v-6.3h-2.5v-3.3h0.7c0.7,0,1.3-0.2,1.6-0.6c0.3-0.4,0.5-0.9,0.5-1.5v-1.9h3.3V126.6z"/>
	<path class="st0" d="M198.1,131.9c-0.4-1.6-1.7-2.2-2.9-2.2c-1.6,0-2.6,0.8-3,2.2H198.1z M195.6,136.9c1.1,0,2.1-0.4,2.7-1.1
		l3.3,1.9c-1.4,1.9-3.4,2.9-6,2.9c-4.7,0-7.7-3.2-7.7-7.3c0-4.1,3-7.3,7.4-7.3c4,0,7,3.1,7,7.3c0,0.6-0.1,1.1-0.2,1.7h-9.8
		C192.8,136.4,194,136.9,195.6,136.9"/>
	<path class="st0" d="M217.8,131.7v8.5h-4.2v-7.9c0-1.7-1.1-2.5-2.4-2.5c-1.5,0-2.6,0.9-2.6,2.9v7.6h-4.2v-13.9h4.2v1.3
		c0.8-1,2.1-1.7,4-1.7C215.4,126,217.8,128,217.8,131.7"/>
	<path class="st0" d="M225.5,126.6h2.7v3.3h-2.7v5.7c0,0.6,0.1,1,0.4,1.2c0.3,0.2,0.7,0.4,1.2,0.4c0.2,0,0.4,0,0.7,0
		c0.2,0,0.4,0,0.5-0.1v3.1c-0.2,0.1-0.4,0.1-0.8,0.2c-0.3,0.1-0.8,0.1-1.3,0.1c-1.3,0-2.4-0.4-3.2-1.1c-0.8-0.7-1.2-1.8-1.2-3.1
		v-6.3h-2.5v-3.3h0.7c0.7,0,1.3-0.2,1.6-0.6c0.3-0.4,0.5-0.9,0.5-1.5v-1.9h3.3V126.6z"/>
	<path class="st0" d="M184,112.6c-1.1-1-1.8-2.1-1.7-3.4l-3.8,4c0.5,1,1.3,1.9,2.2,2.8c2,1.9,4.3,2.8,6.7,2.7v-4.8
		C186.3,114,185,113.6,184,112.6"/>
</g>
</svg>
